<?xml version="1.0" encoding="UTF-8"?>
<!DOCTYPE svg PUBLIC "-//W3C//DTD SVG 1.1//EN" "http://www.w3.org/Graphics/SVG/1.1/DTD/svg11.dtd">
<svg xmlns="http://www.w3.org/2000/svg" version="1.1" width="354px" height="369px" style="shape-rendering:geometricPrecision; text-rendering:geometricPrecision; image-rendering:optimizeQuality; fill-rule:evenodd; clip-rule:evenodd" xmlns:xlink="http://www.w3.org/1999/xlink">
<g><path style="opacity:0.986" fill="#263871" d="M 145.5,-0.5 C 151.833,-0.5 158.167,-0.5 164.5,-0.5C 178.38,3.2077 189.214,11.2077 197,23.5C 201.766,31.7933 205.766,40.4599 209,49.5C 213.616,63.6312 217.449,77.9645 220.5,92.5C 220.154,93.6956 219.654,93.6956 219,92.5C 215.489,79.4554 211.822,66.4554 208,53.5C 202.993,37.1844 193.493,24.3511 179.5,15C 159.959,6.62494 145.125,11.7916 135,30.5C 131.41,38.2674 128.41,46.2674 126,54.5C 122.026,70.7014 118.693,87.0347 116,103.5C 115.283,104.044 114.783,104.711 114.5,105.5C 114.167,105.5 113.833,105.5 113.5,105.5C 112.833,105.5 112.5,105.833 112.5,106.5C 111.833,106.833 111.167,107.167 110.5,107.5C 109.833,107.5 109.5,107.833 109.5,108.5C 108.833,108.833 108.167,109.167 107.5,109.5C 106.833,109.5 106.5,109.833 106.5,110.5C 105.833,110.5 105.5,110.833 105.5,111.5C 105.167,111.5 104.833,111.5 104.5,111.5C 103.833,111.5 103.5,111.833 103.5,112.5C 102.833,112.5 102.5,112.833 102.5,113.5C 100.284,114.203 98.451,115.536 97,117.5C 96.6174,116.944 96.1174,116.611 95.5,116.5C 95.7373,115.209 95.404,114.209 94.5,113.5C 94.7373,112.209 94.404,111.209 93.5,110.5C 93.6716,109.508 93.3382,108.842 92.5,108.5C 92.7373,107.209 92.404,106.209 91.5,105.5C 91.5979,103.447 90.9313,101.78 89.5,100.5C 89.5979,98.4471 88.9313,96.7804 87.5,95.5C 86.5937,91.8512 85.2604,88.3512 83.5,85C 88.3604,65.113 95.8604,46.2797 106,28.5C 115.29,13.2978 128.457,3.63113 145.5,-0.5 Z"/></g>
<g><path style="opacity:0.986" fill="#f5a507" d="M 87.5,95.5 C 87.4021,97.5529 88.0687,99.2196 89.5,100.5C 89.4021,102.553 90.0687,104.22 91.5,105.5C 91.2627,106.791 91.596,107.791 92.5,108.5C 92.3284,109.492 92.6618,110.158 93.5,110.5C 93.2627,111.791 93.596,112.791 94.5,113.5C 94.2627,114.791 94.596,115.791 95.5,116.5C 95.4614,117.756 95.9614,118.756 97,119.5C 99.0396,117.63 100.873,115.63 102.5,113.5C 103.167,113.5 103.5,113.167 103.5,112.5C 104.167,112.5 104.5,112.167 104.5,111.5C 104.833,111.5 105.167,111.5 105.5,111.5C 106.167,111.5 106.5,111.167 106.5,110.5C 107.167,110.5 107.5,110.167 107.5,109.5C 108.167,109.167 108.833,108.833 109.5,108.5C 110.167,108.5 110.5,108.167 110.5,107.5C 111.167,107.167 111.833,106.833 112.5,106.5C 113.167,106.5 113.5,106.167 113.5,105.5C 113.833,105.5 114.167,105.5 114.5,105.5C 119.419,103.309 122.919,104.642 125,109.5C 125.667,113.5 125.667,117.5 125,121.5C 119.846,141.133 113.013,160.133 104.5,178.5C 103.662,178.842 103.328,179.508 103.5,180.5C 102.662,180.842 102.328,181.508 102.5,182.5C 101.833,182.5 101.5,182.833 101.5,183.5C 101.5,183.833 101.5,184.167 101.5,184.5C 100.833,184.5 100.5,184.833 100.5,185.5C 99.6618,185.842 99.3284,186.508 99.5,187.5C 98.8333,187.5 98.5,187.833 98.5,188.5C 98.5,188.833 98.5,189.167 98.5,189.5C 97.8333,189.5 97.5,189.833 97.5,190.5C 96.8333,190.5 96.5,190.833 96.5,191.5C 96.1667,192.167 95.8333,192.833 95.5,193.5C 94.8333,193.5 94.5,193.833 94.5,194.5C 93.8333,194.5 93.5,194.833 93.5,195.5C 92.8333,195.5 92.5,195.833 92.5,196.5C 91.8333,196.5 91.5,196.833 91.5,197.5C 90.8333,197.5 90.5,197.833 90.5,198.5C 89.8333,198.5 89.5,198.833 89.5,199.5C 83.9518,200.457 80.7851,198.123 80,192.5C 74.0721,171.123 69.5721,149.456 66.5,127.5C 66.7373,126.209 66.404,125.209 65.5,124.5C 62.9537,107.251 62.1204,89.918 63,72.5C 64.9576,63.9317 68.6242,63.265 74,70.5C 79.0517,78.6079 83.5517,86.9412 87.5,95.5 Z M 102.5,113.5 C 100.873,115.63 99.0396,117.63 97,119.5C 95.9614,118.756 95.4614,117.756 95.5,116.5C 96.1174,116.611 96.6174,116.944 97,117.5C 98.451,115.536 100.284,114.203 102.5,113.5 Z"/></g>
<g><path style="opacity:0.988" fill="#253972" d="M 353.5,91.5 C 353.5,96.8333 353.5,102.167 353.5,107.5C 344.904,135.066 331.237,159.733 312.5,181.5C 312.5,180.167 312.5,178.833 312.5,177.5C 311.041,177.567 309.708,177.234 308.5,176.5C 322.175,158.157 333.009,138.157 341,116.5C 344.726,106.309 341.559,99.4756 331.5,96C 317.791,93.2781 304.458,94.6115 291.5,100C 267.396,110.212 244.729,122.712 223.5,137.5C 212.634,131.873 201.301,127.207 189.5,123.5C 190.342,120.476 191.342,117.476 192.5,114.5C 230.183,91.0502 271.183,77.3836 315.5,73.5C 327.886,73.0511 339.053,76.3844 349,83.5C 350.795,86.0993 352.295,88.7659 353.5,91.5 Z"/></g>
<g><path style="opacity:0.971" fill="#ef8c15" d="M 185.5,105.5 C 186.822,105.33 187.989,105.663 189,106.5C 188.447,121.501 184.614,135.667 177.5,149C 183.564,149.195 189.564,149.861 195.5,151C 199.393,154.588 199.393,158.254 195.5,162C 179.941,172.945 162.941,180.945 144.5,186C 140.833,186.667 137.167,186.667 133.5,186C 132.272,182.826 132.439,179.659 134,176.5C 143.912,154.997 156.579,135.33 172,117.5C 176.099,112.892 180.599,108.892 185.5,105.5 Z"/></g>
<g><path style="opacity:0.985" fill="#263871" d="M 65.5,124.5 C 66.404,125.209 66.7373,126.209 66.5,127.5C 54.2404,124.276 42.2404,125.11 30.5,130C 19.0072,139.494 15.8405,151.328 21,165.5C 22.8944,170.392 25.2277,175.059 28,179.5C 38.2357,194.568 49.4023,208.901 61.5,222.5C 60.9022,227.813 60.5688,233.146 60.5,238.5C 59.8333,240.167 59.1667,241.833 58.5,243.5C 57.8333,243.5 57.1667,243.5 56.5,243.5C 56.5,242.833 56.1667,242.5 55.5,242.5C 54.8333,242.5 54.1667,242.5 53.5,242.5C 53.5,241.833 53.1667,241.5 52.5,241.5C 51.8333,241.5 51.1667,241.5 50.5,241.5C 50.5,240.833 50.1667,240.5 49.5,240.5C 48.8333,240.5 48.1667,240.5 47.5,240.5C 47.5,239.833 47.1667,239.5 46.5,239.5C 45.8333,239.5 45.1667,239.5 44.5,239.5C 44.1583,238.662 43.4916,238.328 42.5,238.5C 42.1667,238.5 41.8333,238.5 41.5,238.5C 41.1583,237.662 40.4916,237.328 39.5,237.5C 39.1667,237.5 38.8333,237.5 38.5,237.5C 37.791,236.596 36.791,236.263 35.5,236.5C 35.1667,236.5 34.8333,236.5 34.5,236.5C 33.791,235.596 32.791,235.263 31.5,235.5C 31.1667,235.5 30.8333,235.5 30.5,235.5C 16.1903,217.879 5.85696,198.212 -0.5,176.5C -0.5,170.5 -0.5,164.5 -0.5,158.5C 4.57994,135.596 18.9133,123.762 42.5,123C 50.2646,122.57 57.9312,123.07 65.5,124.5 Z"/></g>
<g><path style="opacity:0.948" fill="#0a4b87" d="M 189.5,123.5 C 201.301,127.207 212.634,131.873 223.5,137.5C 216.566,142.588 209.733,147.921 203,153.5C 196.596,148.939 189.429,146.939 181.5,147.5C 184.36,139.585 187.027,131.585 189.5,123.5 Z"/></g>
<g><path style="opacity:0.976" fill="#f08c15" d="M 302.5,137.5 C 245.901,171.139 189.235,204.805 132.5,238.5C 140.139,226.018 149.805,215.185 161.5,206C 194.339,178.232 231.006,156.566 271.5,141C 281.567,137.016 291.901,135.849 302.5,137.5 Z"/></g>
<g><path style="opacity:0.997" fill="#f29213" d="M 302.5,137.5 C 306.22,139.254 308.22,142.254 308.5,146.5C 247.923,183.286 186.923,219.286 125.5,254.5C 126.691,248.569 129.024,243.236 132.5,238.5C 189.235,204.805 245.901,171.139 302.5,137.5 Z"/></g>
<g><path style="opacity:0.998" fill="#f39910" d="M 308.5,146.5 C 308.625,152.783 306.958,158.45 303.5,163.5C 245.332,198.419 186.998,233.085 128.5,267.5C 125.839,263.69 124.839,259.356 125.5,254.5C 186.923,219.286 247.923,183.286 308.5,146.5 Z"/></g>
<g><path style="opacity:0.995" fill="#f5a309" d="M 303.5,163.5 C 295.475,179.562 285.475,194.229 273.5,207.5C 272.279,206.535 270.946,206.702 269.5,208C 229.332,232.252 188.999,256.252 148.5,280C 147.402,280.77 147.402,281.603 148.5,282.5C 139.927,279.897 133.26,274.897 128.5,267.5C 186.998,233.085 245.332,198.419 303.5,163.5 Z"/></g>
<g><path style="opacity:0.889" fill="#08508d" d="M 308.5,176.5 C 309.708,177.234 311.041,177.567 312.5,177.5C 312.5,178.833 312.5,180.167 312.5,181.5C 301.161,197.016 288.494,211.516 274.5,225C 273.906,225.464 273.239,225.631 272.5,225.5C 284.735,209.374 296.735,193.041 308.5,176.5 Z"/></g>
<g><path style="opacity:0.962" fill="#05508d" d="M 113.5,180.5 C 124.394,187.064 134.728,194.397 144.5,202.5C 141.833,205.833 138.833,208.833 135.5,211.5C 127.226,204.69 118.559,198.356 109.5,192.5C 107.314,187.386 108.647,183.386 113.5,180.5 Z"/></g>
<g><path style="opacity:0.982" fill="#203e78" d="M 144.5,202.5 C 134.728,194.397 124.394,187.064 113.5,180.5C 123.743,168.753 134.577,157.42 146,146.5C 141.336,157.507 136.336,168.507 131,179.5C 129.024,185.857 131.357,189.19 138,189.5C 148.051,188.15 157.384,184.817 166,179.5C 166.167,179.833 166.333,180.167 166.5,180.5C 159.479,188.188 152.146,195.521 144.5,202.5 Z"/></g>
<g><path style="opacity:0.987" fill="#0d4985" d="M 89.5,199.5 C 90.1667,199.5 90.5,199.167 90.5,198.5C 91.1667,198.5 91.5,198.167 91.5,197.5C 92.1667,197.5 92.5,197.167 92.5,196.5C 93.1667,196.5 93.5,196.167 93.5,195.5C 94.1667,195.5 94.5,195.167 94.5,194.5C 95.1667,194.5 95.5,194.167 95.5,193.5C 95.8333,192.833 96.1667,192.167 96.5,191.5C 97.1667,191.5 97.5,191.167 97.5,190.5C 98.1667,190.5 98.5,190.167 98.5,189.5C 98.5,189.167 98.5,188.833 98.5,188.5C 99.1667,188.5 99.5,188.167 99.5,187.5C 100.338,187.158 100.672,186.492 100.5,185.5C 101.167,185.5 101.5,185.167 101.5,184.5C 101.5,184.167 101.5,183.833 101.5,183.5C 102.167,183.5 102.5,183.167 102.5,182.5C 103.338,182.158 103.672,181.492 103.5,180.5C 104.338,180.158 104.672,179.492 104.5,178.5C 105.117,178.389 105.617,178.056 106,177.5C 106.91,187.5 107.744,197.5 108.5,207.5C 97.4425,209.394 86.4425,212.394 75.5,216.5C 70.5707,193.549 68.0707,170.215 68,146.5C 70.776,162.715 74.4427,178.715 79,194.5C 79.8834,197.102 81.3834,199.269 83.5,201C 85.8805,201.738 87.8805,201.238 89.5,199.5 Z"/></g>
<g><path style="opacity:0.983" fill="#0065a5" d="M 109.5,192.5 C 118.559,198.356 127.226,204.69 135.5,211.5C 129.274,219.902 122.441,227.902 115,235.5C 113.266,231.403 112.266,227.069 112,222.5C 110.968,212.511 110.134,202.511 109.5,192.5 Z"/></g>
<g><path style="opacity:0.989" fill="#f7ab04" d="M 273.5,207.5 C 266.548,216.786 258.881,225.453 250.5,233.5C 250.631,232.761 250.464,232.094 250,231.5C 219.353,249.231 189.187,267.564 159.5,286.5C 155.605,285.538 151.939,284.204 148.5,282.5C 147.402,281.603 147.402,280.77 148.5,280C 188.999,256.252 229.332,232.252 269.5,208C 270.946,206.702 272.279,206.535 273.5,207.5 Z"/></g>
<g><path style="opacity:0.988" fill="#fbc100" d="M 30.5,235.5 C 30.8333,235.5 31.1667,235.5 31.5,235.5C 32.209,236.404 33.209,236.737 34.5,236.5C 34.8333,236.5 35.1667,236.5 35.5,236.5C 36.209,237.404 37.209,237.737 38.5,237.5C 38.8333,237.5 39.1667,237.5 39.5,237.5C 39.8417,238.338 40.5084,238.672 41.5,238.5C 41.8333,238.5 42.1667,238.5 42.5,238.5C 42.8417,239.338 43.5084,239.672 44.5,239.5C 45.1667,239.5 45.8333,239.5 46.5,239.5C 47.1667,239.5 47.5,239.833 47.5,240.5C 48.1667,240.5 48.8333,240.5 49.5,240.5C 50.1667,240.5 50.5,240.833 50.5,241.5C 51.1667,241.5 51.8333,241.5 52.5,241.5C 53.1667,241.5 53.5,241.833 53.5,242.5C 54.1667,242.5 54.8333,242.5 55.5,242.5C 56.1667,242.5 56.5,242.833 56.5,243.5C 57.1667,243.5 57.8333,243.5 58.5,243.5C 59.209,244.404 60.209,244.737 61.5,244.5C 61.1667,242.5 60.8333,240.5 60.5,238.5C 60.5688,233.146 60.9022,227.813 61.5,222.5C 64.5163,217.166 68.5163,216.333 73.5,220C 89.7727,236.275 102.939,254.775 113,275.5C 117.565,292.178 111.398,298.011 94.5,293C 61.3486,282.799 32.5153,265.632 8,241.5C 4.80876,234.348 7.14209,231.682 15,233.5C 20.2545,233.585 25.4212,234.252 30.5,235.5 Z M 60.5,238.5 C 60.8333,240.5 61.1667,242.5 61.5,244.5C 60.209,244.737 59.209,244.404 58.5,243.5C 59.1667,241.833 59.8333,240.167 60.5,238.5 Z"/></g>
<g><path style="opacity:0.971" fill="#025391" d="M 108.5,207.5 C 110.315,228.708 113.482,249.708 118,270.5C 120.478,272.639 122.978,274.639 125.5,276.5C 124.325,276.281 123.325,276.614 122.5,277.5C 121.243,279.679 119.743,281.679 118,283.5C 117.617,282.944 117.117,282.611 116.5,282.5C 108.232,259.3 95.3987,238.967 78,221.5C 76.9055,219.922 76.0722,218.255 75.5,216.5C 86.4425,212.394 97.4425,209.394 108.5,207.5 Z"/></g>
<g><path style="opacity:0.004" fill="#000100" d="M 272.5,225.5 C 271.833,226.167 271.833,226.167 272.5,225.5 Z"/></g>
<g><path style="opacity:0.991" fill="#f8b101" d="M 250.5,233.5 C 249.375,235.129 248.041,236.629 246.5,238C 250.234,239.263 253.567,241.096 256.5,243.5C 230.163,258.333 204.163,273.666 178.5,289.5C 172.035,289.256 165.701,288.256 159.5,286.5C 189.187,267.564 219.353,249.231 250,231.5C 250.464,232.094 250.631,232.761 250.5,233.5 Z"/></g>
<g><path style="opacity:0.991" fill="#fabd00" d="M 256.5,243.5 C 264.787,247.287 270.954,253.287 275,261.5C 276.007,266.111 275.34,270.445 273,274.5C 266.308,281.43 258.141,285.597 248.5,287C 225.191,290.939 201.858,291.772 178.5,289.5C 204.163,273.666 230.163,258.333 256.5,243.5 Z"/></g>
<g><path style="opacity:0.986" fill="#253871" d="M 77.5,308.5 C 77.5,307.5 77.5,306.5 77.5,305.5C 68.7588,303.815 60.0921,301.815 51.5,299.5C 52.2253,292.599 53.8919,285.932 56.5,279.5C 65.3602,285.12 74.6936,289.786 84.5,293.5C 81.9515,298.517 79.6182,303.517 77.5,308.5 Z"/></g>
<g><path style="opacity:0.98" fill="#0072b3" d="M 125.5,276.5 C 136.363,284.426 147.363,292.092 158.5,299.5C 157.178,299.33 156.011,299.663 155,300.5C 149.563,308.387 144.396,316.387 139.5,324.5C 137.11,323.554 134.944,322.221 133,320.5C 135.293,329.418 139.46,337.418 145.5,344.5C 138.357,346.659 131.357,348.992 124.5,351.5C 110.632,335.1 101.632,316.433 97.5,295.5C 103.302,298.17 108.969,298.004 114.5,295C 116.312,291.078 116.979,286.911 116.5,282.5C 117.117,282.611 117.617,282.944 118,283.5C 119.743,281.679 121.243,279.679 122.5,277.5C 123.325,276.614 124.325,276.281 125.5,276.5 Z"/></g>
<g><path style="opacity:0.982" fill="#008ace" d="M 158.5,299.5 C 170.522,306.535 182.522,313.535 194.5,320.5C 192.54,319.862 190.707,319.862 189,320.5C 183.897,327.719 179.064,335.052 174.5,342.5C 174.167,342.5 173.833,342.5 173.5,342.5C 171.147,340.657 168.48,339.323 165.5,338.5C 156.507,334.338 147.84,329.672 139.5,324.5C 144.396,316.387 149.563,308.387 155,300.5C 156.011,299.663 157.178,299.33 158.5,299.5 Z"/></g>
<g><path style="opacity:0.976" fill="#0c4c88" d="M 51.5,299.5 C 60.0921,301.815 68.7588,303.815 77.5,305.5C 77.5,306.5 77.5,307.5 77.5,308.5C 75.6698,315.486 74.0031,322.486 72.5,329.5C 65.8516,327.838 59.1849,326.171 52.5,324.5C 51.5836,324.543 50.9169,324.876 50.5,325.5C 49.2413,316.917 49.5746,308.25 51.5,299.5 Z"/></g>
<g><path style="opacity:0.376" fill="#223165" d="M 201.5,323.5 C 199.973,323.573 198.973,322.906 198.5,321.5C 203.723,318.302 208.89,314.969 214,311.5C 214.617,312.449 214.451,313.282 213.5,314C 209.025,316.65 205.025,319.817 201.5,323.5 Z"/></g>
<g><path style="opacity:0.968" fill="#0096d7" d="M 188.5,349.5 C 186.967,347.755 184.967,346.755 182.5,346.5C 179.52,345.677 176.853,344.343 174.5,342.5C 179.064,335.052 183.897,327.719 189,320.5C 190.707,319.862 192.54,319.862 194.5,320.5C 195.833,320.833 197.167,321.167 198.5,321.5C 198.973,322.906 199.973,323.573 201.5,323.5C 217.684,332.507 235.017,336.673 253.5,336C 262.744,333.754 268.244,327.921 270,318.5C 271.336,307.864 270.169,297.531 266.5,287.5C 267.85,286.05 269.516,285.383 271.5,285.5C 273.605,291.388 275.439,297.388 277,303.5C 281.233,322.466 276.067,338.299 261.5,351C 246.959,358.565 231.626,360.565 215.5,357C 206.384,354.793 197.384,352.293 188.5,349.5 Z"/></g>
<g><path style="opacity:0.937" fill="#04518e" d="M 165.5,338.5 C 168.48,339.323 171.147,340.657 173.5,342.5C 167.006,345.58 160.672,348.913 154.5,352.5C 151.17,350.831 148.503,348.498 146.5,345.5C 147.117,345.611 147.617,345.944 148,346.5C 153.96,343.911 159.794,341.245 165.5,338.5 Z"/></g>
<g><path style="opacity:0.95" fill="#017fc2" d="M 145.5,344.5 C 146.167,344.5 146.5,344.833 146.5,345.5C 148.503,348.498 151.17,350.831 154.5,352.5C 165.359,357.451 174.692,355.451 182.5,346.5C 184.967,346.755 186.967,347.755 188.5,349.5C 181.947,359.398 172.947,365.731 161.5,368.5C 158.167,368.5 154.833,368.5 151.5,368.5C 144.59,366.88 138.257,363.88 132.5,359.5C 130.761,356.757 128.427,354.757 125.5,353.5C 125.167,352.833 124.833,352.167 124.5,351.5C 131.357,348.992 138.357,346.659 145.5,344.5 Z"/></g>
<g><path style="opacity:0.951" fill="#016dad" d="M 72.5,329.5 C 71.2116,347.366 79.3783,357.032 97,358.5C 106.662,357.667 116.162,356.001 125.5,353.5C 128.427,354.757 130.761,356.757 132.5,359.5C 113.413,366.162 94.0802,367.329 74.5,363C 58.8312,355.513 50.8312,343.013 50.5,325.5C 50.9169,324.876 51.5836,324.543 52.5,324.5C 59.1849,326.171 65.8516,327.838 72.5,329.5 Z"/></g>
</svg>
